Coordinates
version=1
nRows=29
nColumns=24
inDegrees=yes

Units are S.I. units (second, meters, Newtons, ...)
Angles are in degrees.

endheader
time	pelvis_tilt	pelvis_list	pelvis_rotation	pelvis_tx	pelvis_ty	pelvis_tz	hip_flexion_r	hip_adduction_r	hip_rotation_r	knee_angle_r	ankle_angle_r	subtalar_angle_r	mtp_angle_r	hip_flexion_l	hip_adduction_l	hip_rotation_l	knee_angle_l	ankle_angle_l	subtalar_angle_l	mtp_angle_l	lumbar_extension	lumbar_bending	lumbar_rotation
      0.61000000	      6.00817305	     -1.51387301	     -0.15756600	      0.16473522	      1.01518303	      0.00164251	     11.35168850	      3.58580191	     -7.12155447	     -3.16198759	      5.79746518	      0.00000000	      0.00000000	    -17.92081967	      2.09902123	      0.03923197	     -6.68478047	     16.39711116	      0.00000000	      0.00000000	    -18.79395940	     -1.26899124	     -3.83177733
      0.62000000	      6.31641235	     -1.58288109	     -0.23704663	      0.16611739	      1.01487493	      0.00282873	     11.35157299	      3.84294438	     -6.87816730	     -5.08267216	      5.93689147	      0.00000000	      0.00000000	    -18.49774507	      1.96459431	     -0.26208672	     -7.34772946	     16.56227265	      0.00000000	      0.00000000	    -19.03953203	     -1.15070521	     -3.67154395
      0.63000000	      6.52039893	     -1.61177803	     -0.12394910	      0.16784602	      1.01449905	      0.00363118	     11.18708740	      4.00884221	     -6.58521626	     -6.51783530	      5.55158449	      0.00000000	      0.00000000	    -18.95077029	      1.81204484	     -0.25176658	     -8.03034520	     16.46785353	      0.00000000	      0.00000000	    -19.11689665	     -0.98700884	     -3.74421178
      0.64000000	      6.62868093	     -1.41847466	     -0.24899398	      0.16955224	      1.01383385	      0.00461502	     11.46226204	      3.94800384	     -6.48930243	     -8.68839719	      5.85960179	      0.00000000	      0.00000000	    -19.19622475	      1.97636111	     -0.55269159	     -8.94867119	     16.60374235	      0.00000000	      0.00000000	    -19.07725785	     -1.11814629	     -3.59489725
      0.65000000	      6.77921967	     -1.34863688	     -0.07106949	      0.17180663	      1.01353933	      0.00531237	     11.10125753	      4.00304220	     -6.29400625	     -9.65218615	      5.39371573	      0.00000000	      0.00000000	    -19.51899872	      1.89338681	     -0.55147474	     -9.79175107	     16.41102829	      0.00000000	      0.00000000	    -19.02639597	     -1.03174116	     -3.72735786
      0.66000000	      6.93223532	     -1.20341306	      0.13413372	      0.17412662	      1.01337295	      0.00576626	     10.64296462	      3.94719611	     -6.19526051	    -10.37016785	      4.92426292	      0.00000000	      0.00000000	    -19.72200635	      1.88444757	     -0.58307220	    -10.86234256	     16.15652634	      0.00000000	      0.00000000	    -18.97565238	     -0.99212976	     -3.83192343
      0.67000000	      6.96769727	     -1.03756752	      0.55387095	      0.17660183	      1.01326839	      0.00594489	     10.01031588	      3.84294051	     -6.39675885	    -10.38244818	      4.16919979	      0.00000000	      0.00000000	    -19.57483316	      1.81485376	     -0.52762790	    -12.35465135	     16.05916255	      0.00000000	      0.00000000	    -18.77173965	     -0.92355494	     -4.13498903
      0.68000000	      6.96840294	     -0.92078421	      1.01764953	      0.17922185	      1.01335050	      0.00603313	      9.25896626	      3.79278607	     -6.41288056	    -10.04934566	      3.48263261	      0.00000000	      0.00000000	    -19.33302347	      1.66679487	     -0.40152129	    -13.91629826	     15.63998819	      0.00000000	      0.00000000	    -18.51618918	     -0.78517075	     -4.43657942
      0.69000000	      6.97171205	     -0.70581406	      1.46946307	      0.18181799	      1.01365928	      0.00608773	      8.47595510	      3.63559330	     -6.30075678	     -9.63485624	      3.12074036	      0.00000000	      0.00000000	    -18.97733384	      1.61228763	     -0.37176793	    -15.63782914	     14.93425735	      0.00000000	      0.00000000	    -18.27635081	     -0.76391716	     -4.71947618
      0.70000000	      6.89739108	     -0.66059486	      2.08865188	      0.18447683	      1.01412847	      0.00595815	      7.57578020	      3.65129679	     -6.42338842	     -8.76867755	      2.43005579	      0.00000000	      0.00000000	    -18.30707619	      1.32065835	     -0.12959283	    -17.77501467	     14.29797676	      0.00000000	      0.00000000	    -17.93697988	     -0.52736795	     -5.07449548
      0.71000000	      6.84915830	     -0.53481416	      2.65875985	      0.18703188	      1.01483076	      0.00588817	      6.72344483	      3.58326936	     -6.39035489	     -8.09173358	      2.20296341	      0.00000000	      0.00000000	    -17.54370572	      1.11257008	     -0.02202439	    -20.05001789	     13.27941782	      0.00000000	      0.00000000	    -17.64736321	     -0.40920844	     -5.36403422
      0.72000000	      6.82629638	     -0.43027584	      3.16677559	      0.18942427	      1.01574094	      0.00589616	      5.93696998	      3.54032016	     -6.31680610	     -7.61009420	      2.20940694	      0.00000000	      0.00000000	    -16.64895589	      0.89865975	      0.05152470	    -22.55266647	     12.06044482	      0.00000000	      0.00000000	    -17.41748566	     -0.28530560	     -5.60773898
      0.73000000	      6.79058534	     -0.33960485	      3.64452339	      0.19159498	      1.01674694	      0.00602837	      5.28703137	      3.51061905	     -6.22558052	     -7.41223450	      2.42414480	      0.00000000	      0.00000000	    -15.56213451	      0.66366887	      0.07535847	    -25.29997539	     10.67537410	      0.00000000	      0.00000000	    -17.20008000	     -0.17921455	     -5.78207946
      0.74000000	      7.00926718	     -0.18838299	      3.96793673	      0.19367664	      1.01825498	      0.00653965	      4.43044040	      3.45620325	     -5.94617967	     -7.42038662	      2.93663815	      0.00000000	      0.00000000	    -14.73794851	      0.48863869	     -0.04444574	    -27.97338414	      8.96110510	      0.00000000	      0.00000000	    -17.30033389	     -0.19393582	     -5.82630788
      0.75000000	      7.12631249	     -0.17130221	      4.31917653	      0.19565061	      1.01966605	      0.00706100	      3.76275075	      3.53719479	     -5.87456784	     -7.59753128	      3.60236345	      0.00000000	      0.00000000	    -13.64058501	      0.14248006	     -0.22165810	    -30.83348067	      6.90694374	      0.00000000	      0.00000000	    -17.27850285	     -0.06451172	     -5.82968082
      0.76000000	      7.25252229	     -0.13301752	      4.52144653	      0.19730173	      1.02100975	      0.00790830	      3.21304904	      3.60652785	     -5.80768048	     -8.02643594	      4.35318019	      0.00000000	      0.00000000	    -12.42067084	     -0.15411825	     -0.48003256	    -33.86320785	      4.79569770	      0.00000000	      0.00000000	    -17.31440636	     -0.01915899	     -5.69262222
      0.77000000	      7.10834575	     -0.05336725	      4.55626308	      0.19864992	      1.02180786	      0.00913050	      3.18745365	      3.59974953	     -5.68813564	     -8.92743825	      5.33945596	      0.00000000	      0.00000000	    -10.79770368	     -0.38962249	     -0.90393423	    -37.03441231	      2.75714900	      0.00000000	      0.00000000	    -17.07019715	     -0.10641300	     -5.43969746
      0.78000000	      7.52621333	     -0.00166779	      4.60994267	      0.20020653	      1.02352967	      0.01046369	      2.21529010	      3.70588872	     -5.69866408	     -9.15508948	      6.00440321	      0.00000000	      0.00000000	     -9.89680158	     -0.73759307	     -1.30497418	    -39.86965879	      0.44527302	      0.00000000	      0.00000000	    -17.44061754	     -0.13321946	     -5.17173963
      0.79000000	      7.87950335	      0.06179881	      4.56949137	      0.20164808	      1.02502811	      0.01204255	      1.29190751	      3.79850972	     -5.83743184	     -9.30705885	      6.58231222	      0.00000000	      0.00000000	     -8.89394745	     -1.08999358	     -1.81777698	    -42.69232231	     -1.79175354	      0.00000000	      0.00000000	    -17.73611249	     -0.22343168	     -4.83434248
      0.80000000	      8.19173603	      0.12183517	      4.48571982	      0.20296161	      1.02636705	      0.01384600	      0.35525566	      3.90058065	     -6.06192198	     -9.30532946	      7.06604719	      0.00000000	      0.00000000	     -7.83567658	     -1.47504207	     -2.35568904	    -45.44340124	     -3.90861450	      0.00000000	      0.00000000	    -17.99316623	     -0.35505303	     -4.40826974
      0.81000000	      8.45012651	      0.17269331	      4.35803095	      0.20417424	      1.02751003	      0.01575357	     -0.60472564	      4.01187066	     -6.36509540	     -9.08700769	      7.33892019	      0.00000000	      0.00000000	     -6.71207585	     -1.88426269	     -2.92885645	    -48.13151886	     -5.75501967	      0.00000000	      0.00000000	    -18.18014104	     -0.50679800	     -3.95053200
      0.82000000	      8.74493316	      0.25351095	      4.20493294	      0.20529554	      1.02862268	      0.01770412	     -1.68521252	      4.09558888	     -6.70813001	     -8.68184969	      7.59403366	      0.00000000	      0.00000000	     -5.66327748	     -2.26283493	     -3.46141864	    -50.67222101	     -7.27645559	      0.00000000	      0.00000000	    -18.40555917	     -0.70259536	     -3.47690811
      0.83000000	      9.00473318	      0.32637146	      4.02142736	      0.20633141	      1.02960478	      0.01967636	     -2.80820799	      4.18909976	     -7.08190330	     -8.06938241	      7.68152731	      0.00000000	      0.00000000	     -4.60634856	     -2.63982800	     -3.96451700	    -53.07881206	     -8.43202329	      0.00000000	      0.00000000	    -18.58367758	     -0.90604506	     -2.98789556
      0.84000000	      9.24395426	      0.38234073	      3.87556277	      0.20722271	      1.03053901	      0.02158777	     -3.98449164	      4.30671986	     -7.43439574	     -7.26705551	      7.54833749	      0.00000000	      0.00000000	     -3.53648343	     -3.04017778	     -4.40159554	    -55.35243624	     -9.14429633	      0.00000000	      0.00000000	    -18.74110278	     -1.09040621	     -2.47667603
      0.85000000	      9.51436170	      0.68325090	      3.51494933	      0.20773847	      1.03152408	      0.02335089	     -4.94597291	      4.08218769	     -7.78411314	     -6.98063471	      7.66120529	      0.00000000	      0.00000000	     -2.63265362	     -2.99470037	     -4.72776048	    -57.30941680	     -9.26969875	      0.00000000	      0.00000000	    -18.98302195	     -1.55794428	     -1.83676534
      0.86000000	      9.64446575	      0.54636104	      3.47211639	      0.20864053	      1.03221544	      0.02519497	     -6.28605514	      4.45661761	     -7.96742266	     -5.54684436	      7.17537668	      0.00000000	      0.00000000	     -1.45046669	     -3.65631510	     -5.13909027	    -59.35435709	     -9.23011177	      0.00000000	      0.00000000	    -18.96178658	     -1.53215270	     -1.45592250
      0.87000000	      9.86286799	      0.82640020	      3.15798450	      0.20887765	      1.03318990	      0.02675280	     -7.19522402	      4.24761773	     -8.20643225	     -5.23033699	      7.29086179	      0.00000000	      0.00000000	     -0.52682894	     -3.61796795	     -5.42116098	    -60.94309216	     -9.05484912	      0.00000000	      0.00000000	    -19.15583873	     -1.96434968	     -0.90547489
      0.88000000	      9.94139597	      0.84846868	      2.94700103	      0.20947535	      1.03387429	      0.02823484	     -8.35221508	      4.36058382	     -8.02597918	     -4.08827580	      6.99385185	      0.00000000	      0.00000000	      0.53654263	     -3.88145160	     -5.65846991	    -62.48266478	     -7.89324853	      0.00000000	      0.00000000	    -19.09603635	     -2.09937377	     -0.44329789
      0.89000000	     10.07316370	      1.02527316	      2.65206732	      0.20951460	      1.03481666	      0.02968387	     -9.27628116	      4.26472009	     -7.97997903	     -3.50461660	      6.93513113	      0.00000000	      0.00000000	      1.48797874	     -3.89625385	     -5.85095966	    -63.66887270	     -7.04095386	      0.00000000	      0.00000000	    -19.19137635	     -2.42110063	      0.05714990
